HIERARCHY
ROOT hips
{
  OFFSET -0.00735851563513279 12.18665635585785 0.12248523347079754
  CHANNELS 6 Xposition Yposition Zposition Yrotation Xrotation Zrotation
  JOINT spine
  {
    OFFSET 1.0244548320770264e-7 0.5955291986465454 0
    CHANNELS 3 Yrotation Xrotation Zrotation
    JOINT chest
    {
      OFFSET 0 1.2719063864449713 0
      CHANNELS 3 Yrotation Xrotation Zrotation
      JOINT upperChest
      {
        OFFSET 0 1.490802666915459 0
        CHANNELS 3 Yrotation Xrotation Zrotation
        JOINT neck
        {
          OFFSET 0 1.3131953345263365 0
          CHANNELS 3 Yrotation Xrotation Zrotation
          JOINT head
          {
            OFFSET 0 0.8653679716847534 0
            CHANNELS 3 Yrotation Xrotation Zrotation
            JOINT leftEye
            {
              OFFSET 0.20629723300226033 0.6721053123474121 0.3036841657012701
              CHANNELS 3 Yrotation Xrotation Zrotation
              End Site
              {
                OFFSET 0.20629723300226033 0.6721053123474121 0.3036841657012701
              }
            }
            JOINT rightEye
            {
              OFFSET -0.20629652100615203 0.6721066236495972 0.30368443205952644
              CHANNELS 3 Yrotation Xrotation Zrotation
              End Site
              {
                OFFSET -0.20629652100615203 0.6721066236495972 0.30368443205952644
              }
            }
          }
        }
        JOINT leftShoulder
        {
          OFFSET 0.24624172446783632 0.959903359413147 0
          CHANNELS 3 Yrotation Xrotation Zrotation
          JOINT leftUpperArm
          {
            OFFSET 0.9650355761446514 0 0
            CHANNELS 3 Yrotation Xrotation Zrotation
            JOINT leftLowerArm
            {
              OFFSET 2.4419134471639827 0 0
              CHANNELS 3 Yrotation Xrotation Zrotation
              JOINT leftHand
              {
                OFFSET 2.3874557408809456 0 0
                CHANNELS 3 Yrotation Xrotation Zrotation
                JOINT leftIndexProximal
                {
                  OFFSET 0.7029628753662109 0.06118142604827881 0.23586585000157356
                  CHANNELS 3 Yrotation Xrotation Zrotation
                  JOINT leftIndexIntermediate
                  {
                    OFFSET 0.36102771759033203 -0.001475214958190918 0.056637559086084366
                    CHANNELS 3 Yrotation Xrotation Zrotation
                    JOINT leftIndexDistal
                    {
                      OFFSET 0.22344785928726196 -0.007408857345581055 0.02531452476978302
                      CHANNELS 3 Yrotation Xrotation Zrotation
                      End Site
                      {
                        OFFSET 0.22344785928726196 -0.007408857345581055 0.02531452476978302
                      }
                    }
                  }
                }
                JOINT leftLittleProximal
                {
                  OFFSET 0.6958752870559692 0.034375786781311035 -0.29472956992685795
                  CHANNELS 3 Yrotation Xrotation Zrotation
                  JOINT leftLittleIntermediate
                  {
                    OFFSET 0.34538060426712036 -0.0030041933059692383 0.00024324655532836914
                    CHANNELS 3 Yrotation Xrotation Zrotation
                    JOINT leftLittleDistal
                    {
                      OFFSET 0.19865047931671143 0.00746917724609375 -0.010377676226198673
                      CHANNELS 3 Yrotation Xrotation Zrotation
                      End Site
                      {
                        OFFSET 0.19865047931671143 0.00746917724609375 -0.010377676226198673
                      }
                    }
                  }
                }
                JOINT leftMiddleProximal
                {
                  OFFSET 0.7272291779518127 0.09209799766540527 0.05257739871740341
                  CHANNELS 3 Yrotation Xrotation Zrotation
                  JOINT leftMiddleIntermediate
                  {
                    OFFSET 0.40590834617614746 -0.014838695526123047 0.026817932724952698
                    CHANNELS 3 Yrotation Xrotation Zrotation
                    JOINT leftMiddleDistal
                    {
                      OFFSET 0.2495119571685791 -0.026458144187927246 0.010310646146535873
                      CHANNELS 3 Yrotation Xrotation Zrotation
                      End Site
                      {
                        OFFSET 0.2495119571685791 -0.026458144187927246 0.010310646146535873
                      }
                    }
                  }
                }
                JOINT leftRingProximal
                {
                  OFFSET 0.7334893345832825 0.09136629104614258 -0.1205735495314002
                  CHANNELS 3 Yrotation Xrotation Zrotation
                  JOINT leftRingIntermediate
                  {
                    OFFSET 0.3775520920753479 -0.005917906761169434 0.001896639820188284
                    CHANNELS 3 Yrotation Xrotation Zrotation
                    JOINT leftRingDistal
                    {
                      OFFSET 0.2177620530128479 0.007703900337219238 0.0027355607599020004
                      CHANNELS 3 Yrotation Xrotation Zrotation
                      End Site
                      {
                        OFFSET 0.2177620530128479 0.007703900337219238 0.0027355607599020004
                      }
                    }
                  }
                }
                JOINT leftThumbProximal
                {
                  OFFSET 0.02235114574432373 -0.07603192329406738 0.1950724683701992
                  CHANNELS 3 Yrotation Xrotation Zrotation
                  JOINT leftThumbIntermediate
                  {
                    OFFSET 0.3551589846611023 -0.02970755100250244 0.36741212010383606
                    CHANNELS 3 Yrotation Xrotation Zrotation
                    JOINT leftThumbDistal
                    {
                      OFFSET 0.23456048965454102 -0.016631245613098145 0.2093813568353653
                      CHANNELS 3 Yrotation Xrotation Zrotation
                      End Site
                      {
                        OFFSET 0.23456048965454102 -0.016631245613098145 0.2093813568353653
                      }
                    }
                  }
                }
              }
            }
          }
        }
        JOINT rightShoulder
        {
          OFFSET -0.24624088185373694 0.9600239992141724 0
          CHANNELS 3 Yrotation Xrotation Zrotation
          JOINT rightUpperArm
          {
            OFFSET -0.9650300767908009 0 0
            CHANNELS 3 Yrotation Xrotation Zrotation
            JOINT rightLowerArm
            {
              OFFSET -2.4420125187833426 0 0
              CHANNELS 3 Yrotation Xrotation Zrotation
              JOINT rightHand
              {
                OFFSET -2.3874255620910265 0 0
                CHANNELS 3 Yrotation Xrotation Zrotation
                JOINT rightIndexProximal
                {
                  OFFSET -0.7029609084129333 0.06117355823516846 0.23587234504520893
                  CHANNELS 3 Yrotation Xrotation Zrotation
                  JOINT rightIndexIntermediate
                  {
                    OFFSET -0.3610270619392395 -0.0014804601669311523 0.05664427950978279
                    CHANNELS 3 Yrotation Xrotation Zrotation
                    JOINT rightIndexDistal
                    {
                      OFFSET -0.2234485149383545 -0.0074127912521362305 0.025317884981632233
                      CHANNELS 3 Yrotation Xrotation Zrotation
                      End Site
                      {
                        OFFSET -0.2234485149383545 -0.0074127912521362305 0.025317884981632233
                      }
                    }
                  }
                }
                JOINT rightLittleProximal
                {
                  OFFSET -0.6958779096603394 0.034366607666015625 -0.29472311586141586
                  CHANNELS 3 Yrotation Xrotation Zrotation
                  JOINT rightLittleIntermediate
                  {
                    OFFSET -0.3453786373138428 -0.003008127212524414 0.00025422871112823486
                    CHANNELS 3 Yrotation Xrotation Zrotation
                    JOINT rightLittleDistal
                    {
                      OFFSET -0.19865179061889648 0.00746917724609375 -0.010371447540819645
                      CHANNELS 3 Yrotation Xrotation Zrotation
                      End Site
                      {
                        OFFSET -0.19865179061889648 0.00746917724609375 -0.010371447540819645
                      }
                    }
                  }
                }
                JOINT rightMiddleProximal
                {
                  OFFSET -0.7272304892539978 0.09209012985229492 0.05258418060839176
                  CHANNELS 3 Yrotation Xrotation Zrotation
                  JOINT rightMiddleIntermediate
                  {
                    OFFSET -0.4059063792228699 -0.014843940734863281 0.026821313425898552
                    CHANNELS 3 Yrotation Xrotation Zrotation
                    JOINT rightMiddleDistal
                    {
                      OFFSET -0.24951326847076416 -0.026460766792297363 0.010313207283616066
                      CHANNELS 3 Yrotation Xrotation Zrotation
                      End Site
                      {
                        OFFSET -0.24951326847076416 -0.026460766792297363 0.010313207283616066
                      }
                    }
                  }
                }
                JOINT rightRingProximal
                {
                  OFFSET -0.7334906458854675 0.09135580062866211 -0.12056719791144133
                  CHANNELS 3 Yrotation Xrotation Zrotation
                  JOINT rightRingIntermediate
                  {
                    OFFSET -0.37755340337753296 -0.005923151969909668 0.0019026175141334534
                    CHANNELS 3 Yrotation Xrotation Zrotation
                    JOINT rightRingDistal
                    {
                      OFFSET -0.21775943040847778 0.007701277732849121 0.0027383523993194103
                      CHANNELS 3 Yrotation Xrotation Zrotation
                      End Site
                      {
                        OFFSET -0.21775943040847778 0.007701277732849121 0.0027383523993194103
                      }
                    }
                  }
                }
                JOINT rightThumbProximal
                {
                  OFFSET -0.022347867488861084 -0.07603061199188232 0.19507363624870777
                  CHANNELS 3 Yrotation Xrotation Zrotation
                  JOINT rightThumbIntermediate
                  {
                    OFFSET -0.3550455570220947 -0.029461026191711426 0.36754218488931656
                    CHANNELS 3 Yrotation Xrotation Zrotation
                    JOINT rightThumbDistal
                    {
                      OFFSET -0.23451131582260132 -0.016489624977111816 0.20944765955209732
                      CHANNELS 3 Yrotation Xrotation Zrotation
                      End Site
                      {
                        OFFSET -0.23451131582260132 -0.016489624977111816 0.20944765955209732
                      }
                    }
                  }
                }
              }
            }
          }
        }
      }
    }
  }
  JOINT leftUpperLeg
  {
    OFFSET 0.8483456987887621 -0.42556869983673096 0
    CHANNELS 3 Yrotation Xrotation Zrotation
    JOINT leftLowerLeg
    {
      OFFSET 0 -4.6702112872869534 0
      CHANNELS 3 Yrotation Xrotation Zrotation
      JOINT leftFoot
      {
        OFFSET -0.13096565008163452 -5.202569782733917 -0.2985280640423298
        CHANNELS 3 Yrotation Xrotation Zrotation
        JOINT leftToes
        {
          OFFSET 0.01423943042755127 -0.7568342834711075 1.213271364569664
          CHANNELS 3 Yrotation Xrotation Zrotation
          End Site
          {
            OFFSET 0.01423943042755127 -0.7568342834711075 1.213271364569664
          }
        }
      }
    }
  }
  JOINT rightUpperLeg
  {
    OFFSET -0.8483468051999807 -0.42556607723236084 0
    CHANNELS 3 Yrotation Xrotation Zrotation
    JOINT rightLowerLeg
    {
      OFFSET 0 -4.670219469177788 0
      CHANNELS 3 Yrotation Xrotation Zrotation
      JOINT rightFoot
      {
        OFFSET 0.13097601756453514 -5.202573716640472 -0.29853164963424206
        CHANNELS 3 Yrotation Xrotation Zrotation
        JOINT rightToes
        {
          OFFSET -0.014232628047466278 -0.7568355947732925 1.213272675871849
          CHANNELS 3 Yrotation Xrotation Zrotation
          End Site
          {
            OFFSET -0.014232628047466278 -0.7568355947732925 1.213272675871849
          }
        }
      }
    }
  }
}
MOTION
Frames: 12
Frame Time: 0.03333333333333333
0 11.682718080999717 0 0 0 0 0 -4.610651315171937 0 0 3.0831277533083026 0 0 0 0 0 1.5275236235667615 0 0 0 0 0 0 0 0 0 0 0 1.5275236235667615 0 0 0 0 0 0 0 0 0 0 0 0 0 0 0 0 0 0 0 0 0 0 0 0 0 0 0 0 0 0 0 0 0 0 0 0 0 0 0 0 0 0 0 0 0 0 0 0 0 0 0 0 0 0 0 0 1.5275236235667615 0 0 0 0 0 0 0 0 0 0 0 0 0 0 0 0 0 0 0 0 0 0 0 0 0 0 0 0 0 0 0 0 0 0 0 0 0 0 0 0 0 0 0 0 0 0 0 0 0 0 0 0 0 0 0 0 0 -5.826343164929014 -0.3712483961610101 -3.6333298826370974 5.838118207697276 0 0 0 0 0 0 0 0 5.826343164929014 0.3712483961610101 -3.6333298826370974 -5.838118207697276 0 0 0 0 0 0
0 0 -6.709806782651918 0 0 0 0 -4.610651315171937 0 0 3.0831277533083026 0 0 0 0 0 18.527523384746267 0 0 19.000000902791395 0 0 0 0 0 0 0 -4.971383334946642e-17 1.5275236235667615 -30.000000029587593 0.7431785828562526 -0.6691118524563097 -48.00433881298997 -16.99999966021216 0 0 0 0 -22.99999954604251 0 0 0 0 0 0 0 0 0 0 0 0 0 0 0 0 0 0 0 0 0 0 0 0 0 0 0 0 0 0 0 0 0 0 0 0 0 0 0 0 0 0 0 0 0 4.971383334946642e-17 1.5275236235667615 30.000000029587593 -0.7431785828562526 -0.6691118524563097 48.00433881298997 16.99999966021216 0 0 0 0 22.99999954604251 0 0 0 0 0 0 0 0 0 0 0 0 0 0 0 0 0 0 0 0 0 0 0 0 0 0 0 0 0 0 0 0 0 0 0 0 0 0 0 0 0 0 0 0 0 -4.986309928387699e-17 -4.689654921329531 -5.8263431165663055 0.1088267020368597 1.0663776774960085 5.8273559894782325 0 -2.034483023315446 0 0 0 0 4.986309928387699e-17 -4.689654921329531 5.8263431165663055 -0.1088267020368597 1.0663776774960085 -5.8273559894782325 0 -2.034483023315446 0 0 0 0
0 -0.13478498829628277 -6.709806782651918 0 2.1785710670874088 0 0 -4.610651315171937 0 0 3.0831277533083026 0 0 0 0 0 17.384667134988934 0 0 17.32142875161189 0 0 0 0 0 0 0 -4.971383334946642e-17 1.5275236235667615 -30.000000029587593 -0.09314870133172828 -1.598019685713274 -48.00960968966243 -16.99999966021216 0 0 0 0 -22.99999954604251 0 0 0 0 0 0 0 0 0 0 0 0 0 0 0 0 0 0 0 0 0 0 0 0 0 0 0 0 0 0 0 0 0 0 0 0 0 0 0 0 0 0 0 0 0 4.971383334946642e-17 1.5275236235667615 30.000000029587593 0.09314870133172828 -1.598019685713274 48.00960968966243 16.99999966021216 0 0 0 0 22.99999954604251 0 0 0 0 0 0 0 0 0 0 0 0 0 0 0 0 0 0 0 0 0 0 0 0 0 0 0 0 0 0 0 0 0 0 0 0 0 0 0 0 0 0 0 0 0 0 -9.379310096108489 -5.826342837721407 0.5903732919846083 5.766010488515136 5.856074664261319 0 -4.068966103844896 0 0 0 0 0 -9.379310096108489 5.826342837721407 -0.5903732919846083 5.766010488515136 -5.856074664261319 0 -4.068966103844896 0 0 0 0
0 -0.26956997659256793 -6.709806782651918 0 4.357142839874154 0 0 -4.610651315171937 0 0 3.0831277533083026 0 0 0 0 0 16.24181037565372 0 0 15.642856444063892 0 0 0 0 0 0 0 -4.971383334946642e-17 1.5275236235667615 -30.000000029587593 -0.9298789764610271 -2.526905424268168 -48.001311572560624 -16.99999966021216 0 0 0 0 -22.99999954604251 0 0 0 0 0 0 0 0 0 0 0 0 0 0 0 0 0 0 0 0 0 0 0 0 0 0 0 0 0 0 0 0 0 0 0 0 0 0 0 0 0 0 0 0 0 4.971383334946642e-17 1.5275236235667615 30.000000029587593 0.9298789764610271 -2.526905424268168 48.001311572560624 16.99999966021216 0 0 0 0 22.99999954604251 0 0 0 0 0 0 0 0 0 0 0 0 0 0 0 0 0 0 0 0 0 0 0 0 0 0 0 0 0 0 0 0 0 0 0 0 0 0 0 0 0 0 0 0 0 -1.0246591751309911e-16 -14.068965812074849 -5.826342985599321 1.0799811850558731 10.465231986416933 5.9252517198222865 0 -6.103448194761298 0 0 0 0 1.0246591751309911e-16 -14.068965812074849 5.826342985599321 -1.0799811850558731 10.465231986416933 -5.9252517198222865 0 -6.103448194761298 0 0 0 0
0 -0.404354696496581 -6.709806782651918 0 6.535714031070222 0 0 -4.610651315171937 0 0 3.0831277533083026 0 0 0 0 0 15.098953300460051 0 0 13.964285795903768 0 0 0 0 0 0 0 -4.971383334946642e-17 1.5275236235667615 -30.000000029587593 -1.7674530460973648 -3.455570923363569 -47.97941844999104 -16.99999966021216 0 0 0 0 -22.99999954604251 0 0 0 0 0 0 0 0 0 0 0 0 0 0 0 0 0 0 0 0 0 0 0 0 0 0 0 0 0 0 0 0 0 0 0 0 0 0 0 0 0 0 0 0 0 4.971383334946642e-17 1.5275236235667615 30.000000029587593 1.7674530460973648 -3.455570923363569 47.97941844999104 16.99999966021216 0 0 0 0 22.99999954604251 0 0 0 0 0 0 0 0 0 0 0 0 0 0 0 0 0 0 0 0 0 0 0 0 0 0 0 0 0 0 0 0 0 0 0 0 0 0 0 0 0 0 0 0 0 4.198722029744718e-16 -18.758620308528805 -5.826342889953885 1.5846846590305272 15.163683478694173 6.037287145632957 0 -8.137931190567896 0 0 0 0 -4.198722029744718e-16 -18.758620308528805 5.826342889953885 -1.5846846590305272 15.163683478694173 -6.037287145632957 0 -8.137931190567896 0 0 0 0
0 -0.5391396847928638 -6.709806782651918 0 8.714286222936177 0 0 -4.610651315171937 0 0 3.0831277533083026 0 0 0 0 0 13.956094363924448 0 0 12.28571391693072 0 0 0 0 0 0 0 -4.971383334946642e-17 1.5275236235667615 -30.000000029587593 -2.6063134426123 -4.383817161745031 -47.943889423066054 -16.99999966021216 0 0 0 0 -22.99999954604251 0 0 0 0 0 0 0 0 0 0 0 0 0 0 0 0 0 0 0 0 0 0 0 0 0 0 0 0 0 0 0 0 0 0 0 0 0 0 0 0 0 0 0 0 0 4.971383334946642e-17 1.5275236235667615 30.000000029587593 2.6063134426123 -4.383817161745031 47.943889423066054 16.99999966021216 0 0 0 0 22.99999954604251 0 0 0 0 0 0 0 0 0 0 0 0 0 0 0 0 0 0 0 0 0 0 0 0 0 0 0 0 0 0 0 0 0 0 0 0 0 0 0 0 0 0 0 0 0 0 -23.448275933973537 -5.826343191551219 2.112380791445458 19.86096031941023 6.196211351850933 0 -10.172413690151371 0 0 0 0 0 -23.448275933973537 5.826343191551219 -2.112380791445458 19.86096031941023 -6.196211351850933 0 -10.172413690151371 0 0 0 0
0 -0.6739246730891489 -6.709806782651918 0 10.892857154524878 0 0 -4.610651315171937 0 0 3.0831277533083026 0 0 0 0 0 12.813237506533426 0 0 10.607143267871079 0 0 0 0 0 0 0 -4.971383334946642e-17 1.5275236235667615 -30.000000029587593 -3.4469046197165523 -5.311444187171251 -47.89466610463652 -16.99999966021216 0 0 0 0 -22.99999954604251 0 0 0 0 0 0 0 0 0 0 0 0 0 0 0 0 0 0 0 0 0 0 0 0 0 0 0 0 0 0 0 0 0 0 0 0 0 0 0 0 0 0 0 0 0 4.971383334946642e-17 1.5275236235667615 30.000000029587593 3.4469046197165523 -5.311444187171251 47.89466610463652 16.99999966021216 0 0 0 0 22.99999954604251 0 0 0 0 0 0 0 0 0 0 0 0 0 0 0 0 0 0 0 0 0 0 0 0 0 0 0 0 0 0 0 0 0 0 0 0 0 0 0 0 0 0 0 0 0 -6.762802999494042e-16 -28.13793098904482 -5.82634346452574 2.6723533991898893 24.55658898726494 6.408050254399567 0 -12.206897230771379 0 0 0 0 6.762802999494042e-16 -28.13793098904482 5.82634346452574 -2.6723533991898893 24.55658898726494 -6.408050254399567 0 -12.206897230771379 0 0 0 0
0 -0.8087096613854318 -6.709806782651918 0 13.071428665958237 0 0 -4.610651315171937 0 0 3.0831277533083026 0 0 0 0 0 11.67038087561973 0 0 8.928570620526417 0 0 0 0 0 0 0 -4.971383334946642e-17 1.5275236235667615 -30.000000029587593 -4.289674224063584 -6.238250846586264 -47.83168068295844 -16.99999966021216 0 0 0 0 -22.99999954604251 0 0 0 0 0 0 0 0 0 0 0 0 0 0 0 0 0 0 0 0 0 0 0 0 0 0 0 0 0 0 0 0 0 0 0 0 0 0 0 0 0 0 0 0 0 4.971383334946642e-17 1.5275236235667615 30.000000029587593 4.289674224063584 -6.238250846586264 47.83168068295844 16.99999966021216 0 0 0 0 22.99999954604251 0 0 0 0 0 0 0 0 0 0 0 0 0 0 0 0 0 0 0 0 0 0 0 0 0 0 0 0 0 0 0 0 0 0 0 0 0 0 0 0 0 0 0 0 0 9.462493038143135e-16 -32.827584304725654 -5.8263431228471125 3.2759857316942673 29.249989780962984 6.681416886915981 0 -14.241379136024989 0 0 0 0 -9.462493038143135e-16 -32.827584304725654 5.8263431228471125 -3.2759857316942673 29.249989780962984 -6.681416886915981 0 -14.241379136024989 0 0 0 0
0 -0.9434943812894449 -6.709806782651918 0 15.25000000104859 0 0 -4.610651315171937 0 0 3.0831277533083026 0 0 0 0 0 10.52752321180645 0 0 7.249999606959176 0 0 0 0 0 0 0 -4.971383334946642e-17 1.5275236235667615 -30.000000029587593 -5.135072359965586 -7.164033546176061 -47.75484078695602 -16.99999966021216 0 0 0 0 -22.99999954604251 0 0 0 0 0 0 0 0 0 0 0 0 0 0 0 0 0 0 0 0 0 0 0 0 0 0 0 0 0 0 0 0 0 0 0 0 0 0 0 0 0 0 0 0 0 4.971383334946642e-17 1.5275236235667615 30.000000029587593 5.135072359965586 -7.164033546176061 47.75484078695602 16.99999966021216 0 0 0 0 22.99999954604251 0 0 0 0 0 0 0 0 0 0 0 0 0 0 0 0 0 0 0 0 0 0 0 0 0 0 0 0 0 0 0 0 0 0 0 0 0 0 0 0 0 0 0 0 0 0 -37.517242100380386 -5.826343504701028 3.9377794261451715 33.94041339349053 7.028433645339305 0 -16.275861477826513 0 0 0 0 0 -37.517242100380386 5.826343504701028 -3.9377794261451715 33.94041339349053 -7.028433645339305 0 -16.275861477826513 0 0 0 0
0 -1.0782793695857276 -6.709806782651918 0 17.42857241735061 0 0 -4.610651315171937 0 0 3.0831277533083026 0 0 0 0 0 9.384666606576381 0 0 5.571428935981622 0 0 0 0 0 0 0 -4.971383334946642e-17 1.5275236235667615 -30.000000029587593 -5.983553678090122 -8.088587799274581 -47.6640487870217 -16.99999966021216 0 0 0 0 -22.99999954604251 0 0 0 0 0 0 0 0 0 0 0 0 0 0 0 0 0 0 0 0 0 0 0 0 0 0 0 0 0 0 0 0 0 0 0 0 0 0 0 0 0 0 0 0 0 4.971383334946642e-17 1.5275236235667615 30.000000029587593 5.983553678090122 -8.088587799274581 47.6640487870217 16.99999966021216 0 0 0 0 22.99999954604251 0 0 0 0 0 0 0 0 0 0 0 0 0 0 0 0 0 0 0 0 0 0 0 0 0 0 0 0 0 0 0 0 0 0 0 0 0 0 0 0 0 0 0 0 0 5.367309288821624e-16 -42.20689497642034 -5.826343480440114 4.6768928241978625 38.62688918182891 7.466198240227065 0 -18.31034439331177 0 0 0 0 -5.367309288821624e-16 -42.20689497642034 5.826343480440114 -4.6768928241978625 38.62688918182891 -7.466198240227065 0 -18.31034439331177 0 0 0 0
0 -1.2130643578820128 -6.709806782651918 0 19.607143712002237 0 0 -4.610651315171937 0 0 3.0831277533083026 0 0 0 0 0 8.241809723442058 0 0 3.892857133664789 0 0 0 0 0 0 0 -4.971383334946642e-17 1.5275236235667615 -30.000000029587593 -6.835576508888344 -9.011704175779018 -47.559184596842925 -16.99999966021216 0 0 0 0 -22.99999954604251 0 0 0 0 0 0 0 0 0 0 0 0 0 0 0 0 0 0 0 0 0 0 0 0 0 0 0 0 0 0 0 0 0 0 0 0 0 0 0 0 0 0 0 0 0 4.971383334946642e-17 1.5275236235667615 30.000000029587593 6.835576508888344 -9.011704175779018 47.559184596842925 16.99999966021216 0 0 0 0 22.99999954604251 0 0 0 0 0 0 0 0 0 0 0 0 0 0 0 0 0 0 0 0 0 0 0 0 0 0 0 0 0 0 0 0 0 0 0 0 0 0 0 0 0 0 0 0 0 -5.818220763616253e-16 -46.89655024864447 -5.826342765208165 5.51955781302316 43.308059277371584 8.019142042413833 0 -20.344827216148744 0 0 0 0 5.818220763616253e-16 -46.89655024864447 5.826342765208165 -5.51955781302316 43.308059277371584 -8.019142042413833 0 -20.344827216148744 0 0 0 0
0 -1.3478493461782968 -6.709806782651918 0 21.785715238049196 0 0 -4.610651315171937 0 0 3.0831277533083026 0 0 0 0 0 7.098952763795295 0 0 2.2142858992764074 0 0 0 0 0 0 0 -4.971383334946642e-17 1.5275236235667615 -30.000000029587593 -7.691604192925385 -9.93317242580662 -47.440112959037535 -16.99999966021216 0 0 0 0 -22.99999954604251 0 0 0 0 0 0 0 0 0 0 0 0 0 0 0 0 0 0 0 0 0 0 0 0 0 0 0 0 0 0 0 0 0 0 0 0 0 0 0 0 0 0 0 0 0 4.971383334946642e-17 1.5275236235667615 30.000000029587593 7.691604192925385 -9.93317242580662 47.440112959037535 16.99999966021216 0 0 0 0 22.99999954604251 0 0 0 0 0 0 0 0 0 0 0 0 0 0 0 0 0 0 0 0 0 0 0 0 0 0 0 0 0 0 0 0 0 0 0 0 0 0 0 0 0 0 0 0 0 -1.279723302408571e-15 -51.58620525419028 -5.826343131520333 6.5030616017371985 47.982011007690545 8.722962818092858 0 -22.3793106231787 0 0 0 0 1.279723302408571e-15 -51.58620525419028 5.826343131520333 -6.5030616017371985 47.982011007690545 -8.722962818092858 0 -22.3793106231787 0 0 0 0
